<svg xmlns="http://www.w3.org/2000/svg" width="1900" height="1700" viewBox="0 0 1900 1700">
<style>
  .title { font: 700 34px Arial, sans-serif; fill: #0f172a; }
  .subtitle { font: 18px Arial, sans-serif; fill: #475569; }
  .section { font: 700 24px Arial, sans-serif; fill: #0f172a; }
  .boxTitle { font: 700 20px Arial, sans-serif; fill: #111827; }
  .boxText { font: 16px Arial, sans-serif; fill: #1f2937; }
  .smallText { font: 15px Arial, sans-serif; fill: #334155; }
  .container { fill: #f8fafc; stroke: #94a3b8; stroke-width: 2; rx: 18; }
  .line { stroke: #334155; stroke-width: 2.5; fill: none; marker-end: url(#arrow); }
  .label { font: 14px Arial, sans-serif; fill: #334155; }
</style>
<defs>
  <marker id="arrow" markerWidth="10" markerHeight="10" refX="8" refY="3" orient="auto" markerUnits="strokeWidth">
    <path d="M0,0 L0,6 L9,3 z" fill="#334155"/>
  </marker>
</defs>

<text x="40" y="50" class="title">AuditionApp — Full Architecture Diagram</text>
<text x="40" y="80" class="subtitle">Oracle APEX web platform for musician audition submission and organization review</text>
<rect x="30" y="110" width="1780" height="430" class="container"/>
<text x="50" y="145" class="section">1. Logical Architecture / Deployment Context</text>
<rect x="30" y="570" width="1780" height="420" class="container"/>
<text x="50" y="605" class="section">2. Data Model</text>
<rect x="30" y="1020" width="1780" height="620" class="container"/>
<text x="50" y="1055" class="section">3. Key Workflows</text>
<rect x="90" y="190" width="260" height="110" rx="16" ry="16" fill="#dbeafe" stroke="#2563eb" stroke-width="2"/>
<text x="108" y="220" class="boxTitle">Musicians</text>
<text x="108" y="244" class="boxText">- register</text>
<text x="108" y="264" class="boxText">- log in</text>
<text x="108" y="284" class="boxText">- browse auditions</text>
<text x="108" y="304" class="boxText">- upload videos</text>
<rect x="90" y="340" width="260" height="110" rx="16" ry="16" fill="#ede9fe" stroke="#7c3aed" stroke-width="2"/>
<text x="108" y="370" class="boxTitle">Organizations</text>
<text x="108" y="394" class="boxText">- register</text>
<text x="108" y="414" class="boxText">- log in</text>
<text x="108" y="434" class="boxText">- publish audition events</text>
<text x="108" y="454" class="boxText">- review applicants</text>
<rect x="430" y="170" width="430" height="320" rx="16" ry="16" fill="#ccfbf1" stroke="#0f766e" stroke-width="2"/>
<text x="448" y="200" class="boxTitle">Oracle APEX Web Application</text>
<text x="448" y="224" class="boxText">Musician-facing paths</text>
<text x="448" y="244" class="boxText">Organization-facing paths</text>
<text x="448" y="264" class="boxText">Shared navigation + forms + reports</text>
<text x="448" y="284" class="boxText">Agent-friendly low-code web target</text>
<rect x="480" y="250" width="140" height="70" rx="16" ry="16" fill="#ffffff" stroke="#0f766e" stroke-width="2"/>
<text x="495" y="278" class="boxTitle">Auth &amp;</text>
<text x="495" y="302" class="boxText">Profiles</text>
<rect x="650" y="250" width="160" height="70" rx="16" ry="16" fill="#ffffff" stroke="#0f766e" stroke-width="2"/>
<text x="665" y="278" class="boxTitle">Audition</text>
<text x="665" y="302" class="boxText">Catalog</text>
<rect x="480" y="350" width="140" height="70" rx="16" ry="16" fill="#ffffff" stroke="#0f766e" stroke-width="2"/>
<text x="495" y="378" class="boxTitle">Application</text>
<text x="495" y="402" class="boxText">Workflow</text>
<rect x="650" y="350" width="160" height="70" rx="16" ry="16" fill="#ffffff" stroke="#0f766e" stroke-width="2"/>
<text x="665" y="378" class="boxTitle">Review &amp;</text>
<text x="665" y="402" class="boxText">Status</text>
<rect x="970" y="170" width="360" height="320" rx="16" ry="16" fill="#ffedd5" stroke="#b45309" stroke-width="2"/>
<text x="988" y="200" class="boxTitle">Oracle Database / PL/SQL Layer</text>
<text x="988" y="224" class="boxText">Business rules</text>
<text x="988" y="244" class="boxText">Validation logic</text>
<text x="988" y="264" class="boxText">APEX forms + reports</text>
<text x="988" y="284" class="boxText">Workflow status transitions</text>
<text x="988" y="304" class="boxText">Tape limit enforcement</text>
<rect x="1010" y="255" width="280" height="70" rx="16" ry="16" fill="#ffffff" stroke="#b45309" stroke-width="2"/>
<text x="1028" y="285" class="boxTitle">Core relational</text>
<text x="1028" y="309" class="boxText">tables</text>
<rect x="1010" y="350" width="280" height="95" rx="16" ry="16" fill="#ffffff" stroke="#b45309" stroke-width="2"/>
<text x="1028" y="378" class="boxTitle">PL/SQL validations</text>
<text x="1028" y="402" class="boxText">- unique registration</text>
<text x="1028" y="422" class="boxText">- min/max tape count</text>
<text x="1028" y="442" class="boxText">- ready status checks</text>
<rect x="1420" y="180" width="300" height="100" rx="16" ry="16" fill="#dcfce7" stroke="#15803d" stroke-width="2"/>
<text x="1438" y="210" class="boxTitle">Object Storage</text>
<text x="1438" y="234" class="boxText">video files / media blobs</text>
<text x="1438" y="254" class="boxText">free-tier candidate for early testing</text>
<rect x="1420" y="310" width="300" height="70" rx="16" ry="16" fill="#e0f2fe" stroke="#0369a1" stroke-width="2"/>
<text x="1438" y="340" class="boxTitle">Telegram</text>
<text x="1438" y="364" class="boxText">notifications / ops chat</text>
<rect x="1420" y="400" width="300" height="70" rx="16" ry="16" fill="#dbeafe" stroke="#1d4ed8" stroke-width="2"/>
<text x="1438" y="430" class="boxTitle">Jira Free</text>
<text x="1438" y="454" class="boxText">project task management</text>
<rect x="1420" y="500" width="300" height="70" rx="16" ry="16" fill="#f3e8ff" stroke="#6d28d9" stroke-width="2"/>
<text x="1438" y="530" class="boxTitle">Mobile app research</text>
<text x="1438" y="554" class="boxText">best-fit iPhone/Android framework TBD</text>
<line x1="350" y1="245" x2="430" y2="245" class="line"/>
<text x="368.0" y="239.0" class="label">browse/apply</text>
<line x1="350" y1="395" x2="430" y2="395" class="line"/>
<text x="368.0" y="389.0" class="label">manage/review</text>
<line x1="860" y1="330" x2="970" y2="330" class="line"/>
<text x="893.0" y="324.0" class="label">CRUD</text>
<line x1="1330" y1="240" x2="1420" y2="240" class="line"/>
<text x="1353.0" y="234.0" class="label">store refs</text>
<line x1="1330" y1="345" x2="1420" y2="345" class="line"/>
<text x="1353.0" y="339.0" class="label">notify</text>
<line x1="1330" y1="435" x2="1420" y2="435" class="line"/>
<text x="1353.0" y="429.0" class="label">tasks</text>
<rect x="90" y="650" width="240" height="180" rx="16" ry="16" fill="#ede9fe" stroke="#7c3aed" stroke-width="2"/>
<text x="108" y="680" class="boxTitle">Organization</text>
<text x="108" y="704" class="boxText">PK organization_id</text>
<text x="108" y="724" class="boxText">organization_name</text>
<text x="108" y="744" class="boxText">contact_name</text>
<text x="108" y="764" class="boxText">email</text>
<text x="108" y="784" class="boxText">status</text>
<text x="108" y="804" class="boxText">created_at</text>
<text x="108" y="824" class="boxText">updated_at</text>
<rect x="420" y="650" width="260" height="200" rx="16" ry="16" fill="#ccfbf1" stroke="#0f766e" stroke-width="2"/>
<text x="438" y="680" class="boxTitle">Audition Event</text>
<text x="438" y="704" class="boxText">PK audition_event_id</text>
<text x="438" y="724" class="boxText">FK organization_id</text>
<text x="438" y="744" class="boxText">title</text>
<text x="438" y="764" class="boxText">description</text>
<text x="438" y="784" class="boxText">location</text>
<text x="438" y="804" class="boxText">deadline</text>
<text x="438" y="824" class="boxText">status</text>
<text x="438" y="844" class="boxText">audition_count_min</text>
<text x="438" y="864" class="boxText">audition_count_max</text>
<rect x="760" y="660" width="250" height="150" rx="16" ry="16" fill="#cffafe" stroke="#0891b2" stroke-width="2"/>
<text x="778" y="690" class="boxTitle">Audition Requirement</text>
<text x="778" y="714" class="boxText">PK requirement_id</text>
<text x="778" y="734" class="boxText">FK audition_event_id</text>
<text x="778" y="754" class="boxText">requirement_type</text>
<text x="778" y="774" class="boxText">requirement_text</text>
<text x="778" y="794" class="boxText">display_order</text>
<rect x="90" y="860" width="240" height="160" rx="16" ry="16" fill="#dbeafe" stroke="#2563eb" stroke-width="2"/>
<text x="108" y="890" class="boxTitle">Musician</text>
<text x="108" y="914" class="boxText">PK musician_id</text>
<text x="108" y="934" class="boxText">full_name</text>
<text x="108" y="954" class="boxText">email</text>
<text x="108" y="974" class="boxText">primary_instrument_or_voice</text>
<text x="108" y="994" class="boxText">city</text>
<text x="108" y="1014" class="boxText">country</text>
<text x="108" y="1034" class="boxText">bio</text>
<rect x="420" y="890" width="260" height="170" rx="16" ry="16" fill="#ffedd5" stroke="#b45309" stroke-width="2"/>
<text x="438" y="920" class="boxTitle">Application</text>
<text x="438" y="944" class="boxText">PK application_id</text>
<text x="438" y="964" class="boxText">FK musician_id</text>
<text x="438" y="984" class="boxText">FK audition_event_id</text>
<text x="438" y="1004" class="boxText">application_status</text>
<text x="438" y="1024" class="boxText">submitted_at</text>
<text x="438" y="1044" class="boxText">reviewed_at</text>
<text x="438" y="1064" class="boxText">review_notes</text>
<rect x="760" y="870" width="250" height="180" rx="16" ry="16" fill="#dcfce7" stroke="#15803d" stroke-width="2"/>
<text x="778" y="900" class="boxTitle">Video Submission</text>
<text x="778" y="924" class="boxText">PK video_submission_id</text>
<text x="778" y="944" class="boxText">FK application_id</text>
<text x="778" y="964" class="boxText">title</text>
<text x="778" y="984" class="boxText">composer_or_work</text>
<text x="778" y="1004" class="boxText">duration</text>
<text x="778" y="1024" class="boxText">storage_url</text>
<text x="778" y="1044" class="boxText">upload_status</text>
<text x="778" y="1064" class="boxText">notes</text>
<rect x="1110" y="760" width="260" height="160" rx="16" ry="16" fill="#e0f2fe" stroke="#0369a1" stroke-width="2"/>
<text x="1128" y="790" class="boxTitle">Notification (optional)</text>
<text x="1128" y="814" class="boxText">PK notification_id</text>
<text x="1128" y="834" class="boxText">recipient_type</text>
<text x="1128" y="854" class="boxText">recipient_id</text>
<text x="1128" y="874" class="boxText">channel</text>
<text x="1128" y="894" class="boxText">message_body</text>
<text x="1128" y="914" class="boxText">delivery_status</text>
<line x1="330" y1="740" x2="420" y2="740" class="line"/>
<text x="353.0" y="734.0" class="label">1:many</text>
<line x1="680" y1="740" x2="760" y2="740" class="line"/>
<text x="698.0" y="734.0" class="label">1:many</text>
<line x1="330" y1="940" x2="420" y2="940" class="line"/>
<text x="353.0" y="934.0" class="label">1:many</text>
<line x1="550" y1="850" x2="550" y2="890" class="line"/>
<text x="528.0" y="864.0" class="label">1:many</text>
<line x1="680" y1="975" x2="760" y2="975" class="line"/>
<text x="698.0" y="969.0" class="label">1:many</text>
<line x1="680" y1="975" x2="1110" y2="840" class="line"/>
<text x="873.0" y="901.5" class="label">events/alerts</text>
<text x="1430" y="700" class="boxTitle">Key constraints</text>
<text x="1430" y="724" class="boxText">- organization owns many audition events</text>
<text x="1430" y="744" class="boxText">- musician may apply to many auditions</text>
<text x="1430" y="764" class="boxText">- each application belongs to one musician + one event</text>
<text x="1430" y="784" class="boxText">- each application may have many videos</text>
<text x="1430" y="804" class="boxText">- video count limited by event min/max rules</text>
<rect x="70" y="1090" width="830" height="240" rx="16" ry="16" fill="#ffffff" stroke="#cbd5e1" stroke-width="2"/>
<text x="90" y="1120" class="boxTitle">Organization workflow</text>
<rect x="110" y="1170" width="150" height="90" rx="16" ry="16" fill="#ede9fe" stroke="#7c3aed" stroke-width="2"/>
<text x="130" y="1200" class="boxTitle">New org</text>
<text x="130" y="1224" class="boxText">registration</text>
<rect x="300" y="1170" width="150" height="90" rx="16" ry="16" fill="#ede9fe" stroke="#7c3aed" stroke-width="2"/>
<text x="320" y="1200" class="boxTitle">Existing org</text>
<text x="320" y="1224" class="boxText">login</text>
<rect x="490" y="1170" width="160" height="90" rx="16" ry="16" fill="#ede9fe" stroke="#7c3aed" stroke-width="2"/>
<text x="510" y="1200" class="boxTitle">Manage</text>
<text x="510" y="1224" class="boxText">audition events</text>
<rect x="690" y="1145" width="160" height="70" rx="16" ry="16" fill="#f5f3ff" stroke="#7c3aed" stroke-width="2"/>
<text x="710" y="1173" class="boxTitle">Add new</text>
<text x="710" y="1197" class="boxText">audition</text>
<rect x="690" y="1235" width="160" height="70" rx="16" ry="16" fill="#f5f3ff" stroke="#7c3aed" stroke-width="2"/>
<text x="710" y="1263" class="boxTitle">Review</text>
<text x="710" y="1287" class="boxText">applicants</text>
<line x1="260" y1="1215" x2="300" y2="1215" class="line"/>
<line x1="450" y1="1215" x2="490" y2="1215" class="line"/>
<line x1="650" y1="1215" x2="690" y2="1180" class="line"/>
<text x="648.0" y="1191.5" class="label">create</text>
<line x1="650" y1="1215" x2="690" y2="1270" class="line"/>
<text x="648.0" y="1236.5" class="label">review</text>
<rect x="930" y="1090" width="830" height="240" rx="16" ry="16" fill="#ffffff" stroke="#cbd5e1" stroke-width="2"/>
<text x="950" y="1120" class="boxTitle">Musician workflow</text>
<rect x="970" y="1170" width="150" height="90" rx="16" ry="16" fill="#dbeafe" stroke="#2563eb" stroke-width="2"/>
<text x="990" y="1200" class="boxTitle">New user</text>
<text x="990" y="1224" class="boxText">registration</text>
<rect x="1160" y="1170" width="150" height="90" rx="16" ry="16" fill="#dbeafe" stroke="#2563eb" stroke-width="2"/>
<text x="1180" y="1200" class="boxTitle">Existing user</text>
<text x="1180" y="1224" class="boxText">login</text>
<rect x="1350" y="1170" width="150" height="90" rx="16" ry="16" fill="#dbeafe" stroke="#2563eb" stroke-width="2"/>
<text x="1370" y="1200" class="boxTitle">Apply for</text>
<text x="1370" y="1224" class="boxText">audition</text>
<rect x="1540" y="1170" width="150" height="90" rx="16" ry="16" fill="#dbeafe" stroke="#2563eb" stroke-width="2"/>
<text x="1560" y="1200" class="boxTitle">Upload</text>
<text x="1560" y="1224" class="boxText">video</text>
<line x1="1120" y1="1215" x2="1160" y2="1215" class="line"/>
<line x1="1310" y1="1215" x2="1350" y2="1215" class="line"/>
<line x1="1500" y1="1215" x2="1540" y2="1215" class="line"/>
<rect x="70" y="1370" width="1690" height="220" rx="16" ry="16" fill="#ffffff" stroke="#cbd5e1" stroke-width="2"/>
<text x="90" y="1400" class="boxTitle">Cross-cutting rules and validations</text>
<rect x="120" y="1450" width="280" height="90" rx="16" ry="16" fill="#ccfbf1" stroke="#0f766e" stroke-width="2"/>
<text x="138" y="1480" class="boxTitle">Authentication</text>
<text x="138" y="1504" class="boxText">- register</text>
<text x="138" y="1524" class="boxText">- login</text>
<text x="138" y="1544" class="boxText">- persona-specific dashboard</text>
<rect x="450" y="1450" width="320" height="90" rx="16" ry="16" fill="#ffedd5" stroke="#b45309" stroke-width="2"/>
<text x="468" y="1480" class="boxTitle">Application rules</text>
<text x="468" y="1504" class="boxText">- one application per musician per event</text>
<text x="468" y="1524" class="boxText">- requirements visible before apply</text>
<rect x="830" y="1450" width="320" height="90" rx="16" ry="16" fill="#dcfce7" stroke="#15803d" stroke-width="2"/>
<text x="848" y="1480" class="boxTitle">Video rules</text>
<text x="848" y="1504" class="boxText">- block uploads above audition_count_max</text>
<text x="848" y="1524" class="boxText">- ready when minimum + metadata satisfied</text>
<rect x="1210" y="1450" width="500" height="90" rx="16" ry="16" fill="#e0f2fe" stroke="#0369a1" stroke-width="2"/>
<text x="1228" y="1480" class="boxTitle">Integrations</text>
<text x="1228" y="1504" class="boxText">- object storage holds files</text>
<text x="1228" y="1524" class="boxText">- Telegram sends notifications</text>
<text x="1228" y="1544" class="boxText">- Jira tracks delivery work</text>
<text x="1228" y="1564" class="boxText">- mobile stack selected after AI research</text>
</svg>